<?xml version="1.0" encoding="utf-8"?>
<!-- Generator: Adobe Illustrator 23.0.0, SVG Export Plug-In . SVG Version: 6.00 Build 0)  -->
<svg version="1.1" id="Calque_1" xmlns="http://www.w3.org/2000/svg" xmlns:xlink="http://www.w3.org/1999/xlink" x="0px" y="0px"
	 viewBox="0 0 1080 1350" style="enable-background:new 0 0 1080 1350;" xml:space="preserve">
<style type="text/css">
	.st0{fill:#A97C50;}
</style>
<path class="st0" d="M462.4,917.9c-9-17.4-7.4-33.8,3.6-49c12.8-17.6,36.5-23.8,56.3-15.2c20,8.6,31.6,29.1,28.4,50.2
	c-3.2,20.8-22.2,38-44.1,39.6c-26.5,2-51.6-3.9-75.6-14.7c-46.2-20.8-84.4-51.4-112.9-93.7c-0.9-1.3-1.4-3.3-3.8-3
	c-1.8,1.9-1,4.4-1,6.6c0,42-0.1,84,0.1,126.1c0.1,16.1,3,31.8,9.1,46.9c6.9,17.4,19.2,28.9,36.8,34.8c11.1,3.7,22.4,6.4,34.1,7.4
	c3.7,0.3,7.9,0.1,7.7,5.9c-0.2,6.7-5.1,4.3-8.3,4.3c-80.2,0.1-160.5,0.1-240.7,0.1c-1.2,0-2.3,0-3.5,0c-2.6-0.1-5.3,0.5-5.5-3.7
	c-0.3-4.1,1.4-6,5.3-6.2c10.2-0.4,20.3-2.3,30.2-4.8c32.5-8.4,43.8-33.8,50.3-63c1.8-8.3,2-16.7,2-25.2
	c-0.1-181.8,0-363.6-0.1-545.4c0-30.6-2-61.1-6.5-91.5c-3.1-20.8-15.9-33.2-34-40.9c-12.3-5.2-25.3-8.7-38.6-10.9
	c-3.8-0.6-7.6-1.2-6.9-6.8c0.6-5.4,4.7-3.5,7.4-3.5c51.4-0.1,102.7,0.1,154.1-0.3c7.6-0.1,7.4,3.5,7.4,9c-0.1,101.3,0,202.5,0,303.8
	c0,3.7,0,7.5,0,11.4c3.4-0.1,3.3-2.7,4-4.3c27.3-62.9,75.6-103.6,138.5-127c107.9-40.1,209.1-26.8,301.4,43
	c49.9,37.7,79,88.3,90,149.9c7,39.2,11,78.5,11.4,118.2c0.7,66.8,0.3,133.6,0.3,200.5c0,12.9,1.9,25.4,5.1,37.9
	c6.9,26.6,24.9,40.4,50.7,45.6c7.4,1.5,14.9,2.7,22.4,3.5c3.8,0.4,4.9,2.1,4.9,5.6c0,3.4-1.8,4.7-4.9,4.6c-1.5,0-2.9,0-4.4,0
	c-78.5,0-157,0-235.5,0c-1.2,0-2.3,0-3.5,0c-2.7,0-5.5,0.1-5.5-3.8c0-3.5,0.6-5.8,5.1-6.4c8-1.1,15.9-3.2,23.9-4.9
	c34-7.2,50.1-30.4,55.8-62.7c1.1-6,1.9-12.2,1.9-18.2c0-72.1,0.8-144.2-0.5-216.2c-0.8-45.7-4.1-91.7-20.2-135.1
	c-27.9-75.2-82.2-120.4-160.6-134.8c-68.9-12.7-132.2,2.4-187.8,45.4c-49.5,38.3-78.3,88.9-87.9,151c-9.3,60.2,3.8,114.6,39.6,163.5
	c24.9,33.9,57.7,58.1,96,75.1C455.9,917.4,458.2,919.1,462.4,917.9z"/>
<path class="st0" d="M858.8,550.7c-17-34-39.5-63.2-70.6-84.5c-10.4-7.1-13.1-14.5-13-26.2c0.6-56.3,0.5-112.6,0.2-168.8
	c0-7.4,2-9.1,9.2-9.1c50.7,0.3,101.5,0.1,152.2,0.3c3.1,0,8.1-2.4,8.4,4.3c0.2,5.9-4.1,5.4-7.6,6c-13.6,2.2-26.7,6.1-39.3,11.3
	c-25.9,10.7-33.1,32.2-35.7,58c-4.5,46.3-3.4,92.6-3.7,138.9C858.6,504.1,858.8,527.4,858.8,550.7z"/>
</svg>
